<svg width="992" height="572" fill="none" xmlns="http://www.w3.org/2000/svg"><circle cx="584.603" cy="174.603" r="25.966" transform="rotate(-21.218 584.603 174.603)" fill="url(#paint0_linear_66_276)"/><circle cx="133.986" cy="105.986" r="10.475" transform="rotate(25.754 133.986 105.986)" fill="url(#paint1_linear_66_276)"/><circle cx="64.575" cy="306.575" r="14.777" transform="rotate(34.913 64.575 306.575)" fill="url(#paint2_linear_66_276)"/><circle r="5.058" transform="scale(-1 1) rotate(52.315 -804.131 -292.068)" fill="url(#paint3_linear_66_276)"/><circle r="11.591" transform="scale(1 -1) rotate(-35.901 -521.77 -1069.78)" fill="url(#paint4_linear_66_276)"/><circle r="7.321" transform="scale(1 -1) rotate(-35.901 -221.992 -1000.595)" fill="url(#paint5_linear_66_276)"/><circle cx="6.938" cy="6.938" r="3.864" transform="rotate(34.913 6.938 6.938)" fill="url(#paint6_linear_66_276)"/><circle r="3.864" transform="scale(1 -1) rotate(34.913 435.665 46.354)" fill="url(#paint7_linear_66_276)"/><circle cx="897.938" cy="265.938" r="3.864" transform="rotate(34.913 897.938 265.938)" fill="url(#paint8_linear_66_276)"/><circle cx="933.938" cy="395.938" r="3.864" transform="rotate(34.913 933.938 395.938)" fill="url(#paint9_linear_66_276)"/><circle cx="659.938" cy="438.938" r="3.864" transform="rotate(34.913 659.938 438.938)" fill="url(#paint10_linear_66_276)"/><circle cx="553.62" cy="290.469" r="1.932" transform="rotate(34.913 553.62 290.469)" fill="url(#paint11_linear_66_276)"/><circle cx="574.469" cy="396.469" r="1.932" transform="rotate(34.913 574.469 396.469)" fill="url(#paint12_linear_66_276)"/><circle cx="679.469" cy="268.469" r="1.932" transform="rotate(34.913 679.469 268.469)" fill="url(#paint13_linear_66_276)"/><circle cx="820.469" cy="249.469" r="1.932" transform="rotate(34.913 820.469 249.469)" fill="url(#paint14_linear_66_276)"/><circle cx="693.469" cy="121.469" r="1.932" transform="rotate(34.913 693.469 121.469)" fill="url(#paint15_linear_66_276)"/><circle cx="569.25" cy="162.869" r="1.932" transform="rotate(-4.157 569.25 162.869)" fill="url(#paint16_linear_66_276)"/><circle cx="738.469" cy="101.469" r="1.932" transform="rotate(34.913 738.469 101.469)" fill="url(#paint17_linear_66_276)"/><circle cx="787.878" cy="93.388" r=".773" transform="rotate(34.913 787.878 93.388)" fill="url(#paint18_linear_66_276)"/><circle cx="933.878" cy="104.388" r=".773" transform="rotate(34.913 933.878 104.388)" fill="url(#paint19_linear_66_276)"/><circle cx="764.878" cy="156.388" r=".773" transform="rotate(34.913 764.878 156.388)" fill="url(#paint20_linear_66_276)"/><circle cx="660.878" cy="132.388" r=".773" transform="rotate(34.913 660.878 132.388)" fill="url(#paint21_linear_66_276)"/><circle cx="625.878" cy="77.388" r=".773" transform="rotate(34.913 625.878 77.388)" fill="url(#paint22_linear_66_276)"/><circle cx="532.878" cy="84.388" r=".773" transform="rotate(34.913 532.878 84.388)" fill="url(#paint23_linear_66_276)"/><circle cx="549.878" cy="30.388" r=".773" transform="rotate(34.913 549.878 30.388)" fill="url(#paint24_linear_66_276)"/><circle cx="427.878" cy="44.388" r=".773" transform="rotate(34.913 427.878 44.388)" fill="url(#paint25_linear_66_276)"/><circle cx="108.783" cy="161.417" r=".773" transform="rotate(-21.397 108.783 161.417)" fill="url(#paint26_linear_66_276)"/><circle cx="146.558" cy="376.566" r=".773" transform="rotate(40.89 146.558 376.566)" fill="url(#paint27_linear_66_276)"/><circle cx="210.192" cy="562.583" r=".773" transform="rotate(76.813 210.192 562.583)" fill="url(#paint28_linear_66_276)"/><circle cx="119.13" cy="430.13" r=".773" transform="rotate(76.813 119.13 430.13)" fill="url(#paint29_linear_66_276)"/><circle cx="760.192" cy="339.583" r=".773" transform="rotate(76.813 760.192 339.583)" fill="url(#paint30_linear_66_276)"/><circle cx="680.884" cy="501.297" r=".773" transform="rotate(160.486 680.884 501.297)" fill="url(#paint31_linear_66_276)"/><circle cx="613.554" cy="558.772" r=".773" transform="rotate(160.486 613.554 558.772)" fill="url(#paint32_linear_66_276)"/><circle cx="754.554" cy="539.772" r=".773" transform="rotate(160.486 754.554 539.772)" fill="url(#paint33_linear_66_276)"/><circle cx="627.554" cy="411.772" r=".773" transform="rotate(160.486 627.554 411.772)" fill="url(#paint34_linear_66_276)"/><circle cx="701.042" cy="429.798" r=".773" transform="rotate(121.417 701.042 429.798)" fill="url(#paint35_linear_66_276)"/><circle cx="362.878" cy="100.388" r=".773" transform="rotate(34.913 362.878 100.388)" fill="url(#paint36_linear_66_276)"/><circle cx="339.878" cy="133.388" r=".773" transform="rotate(34.913 339.878 133.388)" fill="url(#paint37_linear_66_276)"/><circle cx="134.022" cy="284.006" r=".773" transform="rotate(-21.397 134.022 284.006)" fill="url(#paint38_linear_66_276)"/><circle cx="49.767" cy="455.918" r=".773" transform="rotate(40.89 49.767 455.918)" fill="url(#paint39_linear_66_276)"/><circle cx="85.255" cy="570.057" r=".773" transform="rotate(76.813 85.255 570.057)" fill="url(#paint40_linear_66_276)"/><circle cx="65.255" cy="399.057" r=".773" transform="rotate(76.813 65.255 399.057)" fill="url(#paint41_linear_66_276)"/><circle cx="635.255" cy="347.057" r=".773" transform="rotate(76.813 635.255 347.057)" fill="url(#paint42_linear_66_276)"/><circle cx="776.255" cy="328.057" r=".773" transform="rotate(76.813 776.255 328.057)" fill="url(#paint43_linear_66_276)"/><circle cx="649.255" cy="200.057" r=".773" transform="rotate(76.813 649.255 200.057)" fill="url(#paint44_linear_66_276)"/><circle cx="584.455" cy="251.749" r=".773" transform="rotate(37.743 584.455 251.749)" fill="url(#paint45_linear_66_276)"/><circle cx="659.688" cy="377.945" r=".773" transform="rotate(160.486 659.688 377.945)" fill="url(#paint46_linear_66_276)"/><circle cx="800.688" cy="358.945" r=".773" transform="rotate(160.486 800.688 358.945)" fill="url(#paint47_linear_66_276)"/><circle cx="673.688" cy="230.945" r=".773" transform="rotate(160.486 673.688 230.945)" fill="url(#paint48_linear_66_276)"/><circle cx="622.891" cy="260.331" r=".773" transform="rotate(121.417 622.891 260.331)" fill="url(#paint49_linear_66_276)"/><circle cx="592.358" cy="435.419" r=".773" transform="rotate(160.486 592.358 435.419)" fill="url(#paint50_linear_66_276)"/><circle cx="733.358" cy="416.419" r=".773" transform="rotate(160.486 733.358 416.419)" fill="url(#paint51_linear_66_276)"/><circle cx="606.358" cy="288.419" r=".773" transform="rotate(160.486 606.358 288.419)" fill="url(#paint52_linear_66_276)"/><circle cx="606.841" cy="347.389" r=".773" transform="rotate(121.417 606.841 347.389)" fill="url(#paint53_linear_66_276)"/><circle cx="299.387" cy="158.388" r=".773" transform="rotate(34.913 299.387 158.388)" fill="url(#paint54_linear_66_276)"/><circle cx="445.387" cy="139.388" r=".773" transform="rotate(34.913 445.387 139.388)" fill="url(#paint55_linear_66_276)"/><circle cx="565.878" cy="202.388" r=".773" transform="rotate(34.913 565.878 202.388)" fill="url(#paint56_linear_66_276)"/><circle cx="488.387" cy="148.388" r=".773" transform="rotate(34.913 488.387 148.388)" fill="url(#paint57_linear_66_276)"/><circle cx="748.387" cy="67.388" r=".773" transform="rotate(34.913 748.387 67.388)" fill="url(#paint58_linear_66_276)"/><circle cx="894.387" cy="78.388" r=".773" transform="rotate(34.913 894.387 78.388)" fill="url(#paint59_linear_66_276)"/><circle cx="725.387" cy="130.388" r=".773" transform="rotate(34.913 725.387 130.388)" fill="url(#paint60_linear_66_276)"/><circle cx="621.387" cy="106.388" r=".773" transform="rotate(34.913 621.387 106.388)" fill="url(#paint61_linear_66_276)"/><circle cx="586.387" cy="51.388" r=".773" transform="rotate(34.913 586.387 51.388)" fill="url(#paint62_linear_66_276)"/><circle cx="493.387" cy="58.388" r=".773" transform="rotate(34.913 493.387 58.388)" fill="url(#paint63_linear_66_276)"/><circle cx="510.387" cy="4.388" r=".773" transform="rotate(34.913 510.387 4.388)" fill="url(#paint64_linear_66_276)"/><circle cx="388.387" cy="18.388" r=".773" transform="rotate(34.913 388.387 18.388)" fill="url(#paint65_linear_66_276)"/><circle cx="323.387" cy="74.388" r=".773" transform="rotate(34.913 323.387 74.388)" fill="url(#paint66_linear_66_276)"/><circle cx="75.783" cy="264.999" r=".773" transform="rotate(-21.397 75.783 264.999)" fill="url(#paint67_linear_66_276)"/><circle cx="39.512" cy="395.521" r=".773" transform="rotate(40.89 39.512 395.521)" fill="url(#paint68_linear_66_276)"/><circle cx="112.384" cy="515.13" r=".773" transform="rotate(76.813 112.384 515.13)" fill="url(#paint69_linear_66_276)"/><circle cx="92.384" cy="344.13" r=".773" transform="rotate(76.813 92.384 344.13)" fill="url(#paint70_linear_66_276)"/><circle cx="662.384" cy="292.13" r=".773" transform="rotate(76.813 662.384 292.13)" fill="url(#paint71_linear_66_276)"/><circle cx="803.384" cy="273.13" r=".773" transform="rotate(76.813 803.384 273.13)" fill="url(#paint72_linear_66_276)"/><circle cx="676.384" cy="145.13" r=".773" transform="rotate(76.813 676.384 145.13)" fill="url(#paint73_linear_66_276)"/><circle cx="570.898" cy="192.007" r=".773" transform="rotate(37.743 570.898 192.007)" fill="url(#paint74_linear_66_276)"/><circle cx="717.27" cy="398.856" r=".773" transform="rotate(160.486 717.27 398.856)" fill="url(#paint75_linear_66_276)"/><circle cx="649.94" cy="456.331" r=".773" transform="rotate(160.486 649.94 456.331)" fill="url(#paint76_linear_66_276)"/><circle cx="790.94" cy="437.331" r=".773" transform="rotate(160.486 790.94 437.331)" fill="url(#paint77_linear_66_276)"/><circle cx="663.94" cy="309.331" r=".773" transform="rotate(160.486 663.94 309.331)" fill="url(#paint78_linear_66_276)"/><circle cx="664.727" cy="327.332" r=".773" transform="rotate(121.417 664.727 327.332)" fill="url(#paint79_linear_66_276)"/><circle cx="300.387" cy="107.388" r=".773" transform="rotate(34.913 300.387 107.388)" fill="url(#paint80_linear_66_276)"/><circle cx="324.387" cy="171.388" r=".773" transform="rotate(34.913 324.387 171.388)" fill="url(#paint81_linear_66_276)"/><circle cx="299.897" cy="162.388" r=".773" transform="rotate(34.913 299.897 162.388)" fill="url(#paint82_linear_66_276)"/><circle cx="135.974" cy="333.359" r=".773" transform="rotate(-21.397 135.974 333.359)" fill="url(#paint83_linear_66_276)"/><circle cx="6.984" cy="480.596" r=".773" transform="rotate(40.89 6.984 480.596)" fill="url(#paint84_linear_66_276)"/><circle cx="36.13" cy="564.941" r=".773" transform="rotate(76.813 36.13 564.941)" fill="url(#paint85_linear_66_276)"/><circle cx="16.13" cy="393.941" r=".773" transform="rotate(76.813 16.13 393.941)" fill="url(#paint86_linear_66_276)"/><circle cx="586.13" cy="341.941" r=".773" transform="rotate(76.813 586.13 341.941)" fill="url(#paint87_linear_66_276)"/><circle cx="659.359" cy="328.555" r=".773" transform="rotate(160.486 659.359 328.555)" fill="url(#paint88_linear_66_276)"/><circle cx="800.359" cy="309.555" r=".773" transform="rotate(160.486 800.359 309.555)" fill="url(#paint89_linear_66_276)"/><circle cx="673.359" cy="181.555" r=".773" transform="rotate(160.486 673.359 181.555)" fill="url(#paint90_linear_66_276)"/><circle cx="591.506" cy="222.192" r=".773" transform="rotate(121.417 591.506 222.192)" fill="url(#paint91_linear_66_276)"/><circle cx="592.029" cy="386.029" r=".773" transform="rotate(160.486 592.029 386.029)" fill="url(#paint92_linear_66_276)"/><circle cx="733.029" cy="367.029" r=".773" transform="rotate(160.486 733.029 367.029)" fill="url(#paint93_linear_66_276)"/><circle cx="606.029" cy="239.029" r=".773" transform="rotate(160.486 606.029 239.029)" fill="url(#paint94_linear_66_276)"/><circle cx="575.458" cy="309.251" r=".773" transform="rotate(121.417 575.458 309.251)" fill="url(#paint95_linear_66_276)"/><circle cx="454.897" cy="125.388" r=".773" transform="rotate(34.913 454.897 125.388)" fill="url(#paint96_linear_66_276)"/><circle cx="564.387" cy="204.388" r=".773" transform="rotate(34.913 564.387 204.388)" fill="url(#paint97_linear_66_276)"/><circle cx="820.469" cy="145.469" r="1.932" transform="rotate(34.913 820.469 145.469)" fill="url(#paint98_linear_66_276)"/><circle cx="828.469" cy="67.469" r="1.932" transform="rotate(34.913 828.469 67.469)" fill="url(#paint99_linear_66_276)"/><circle cx="860.469" cy="451.469" r="1.932" transform="rotate(34.913 860.469 451.469)" fill="url(#paint100_linear_66_276)"/><circle cx="805.469" cy="521.469" r="1.932" transform="rotate(34.913 805.469 521.469)" fill="url(#paint101_linear_66_276)"/><circle cx="428.938" cy="77.938" r="3.864" transform="rotate(34.913 428.938 77.938)" fill="url(#paint102_linear_66_276)"/><circle cx="346.938" cy="77.938" r="3.864" transform="rotate(34.913 346.938 77.938)" fill="url(#paint103_linear_66_276)"/><circle cx="984.938" cy="74.938" r="3.864" transform="rotate(34.913 984.938 74.938)" fill="url(#paint104_linear_66_276)"/><circle cx="746.938" cy="247.938" r="3.864" transform="rotate(34.913 746.938 247.938)" fill="url(#paint105_linear_66_276)"/><circle cx="640.62" cy="99.469" r="1.932" transform="rotate(34.913 640.62 99.469)" fill="url(#paint106_linear_66_276)"/><circle cx="305.469" cy="42.469" r="1.932" transform="rotate(34.913 305.469 42.469)" fill="url(#paint107_linear_66_276)"/><circle cx="284.469" cy="93.469" r="1.932" transform="rotate(34.913 284.469 93.469)" fill="url(#paint108_linear_66_276)"/><circle cx="211.469" cy="5.469" r="1.932" transform="rotate(34.913 211.469 5.47)" fill="url(#paint109_linear_66_276)"/><circle cx="147.469" cy="48.469" r="1.932" transform="rotate(34.913 147.469 48.469)" fill="url(#paint110_linear_66_276)"/><circle cx="83.469" cy="54.469" r="1.932" transform="rotate(34.913 83.469 54.469)" fill="url(#paint111_linear_66_276)"/><circle r="1.932" transform="scale(1 -1) rotate(34.913 364.855 85.274)" fill="url(#paint112_linear_66_276)"/><circle cx="365.938" cy="141.938" r="3.864" transform="rotate(34.913 365.938 141.938)" fill="url(#paint113_linear_66_276)"/><defs><linearGradient id="paint0_linear_66_276" x1="584.603" y1="148.637" x2="584.603" y2="200.569" gradientUnits="userSpaceOnUse"><stop stop-color="#fff"/><stop offset=".479" stop-color="#fff" stop-opacity=".86"/><stop offset="1" stop-color="#fff" stop-opacity="0"/></linearGradient><linearGradient id="paint1_linear_66_276" x1="133.986" y1="95.511" x2="133.986" y2="116.461" gradientUnits="userSpaceOnUse"><stop stop-color="#fff"/><stop offset=".479" stop-color="#fff" stop-opacity=".86"/><stop offset="1" stop-color="#fff" stop-opacity="0"/></linearGradient><linearGradient id="paint2_linear_66_276" x1="64.575" y1="291.798" x2="64.575" y2="321.352" gradientUnits="userSpaceOnUse"><stop stop-color="#fff"/><stop offset=".479" stop-color="#fff" stop-opacity=".86"/><stop offset="1" stop-color="#fff" stop-opacity="0"/></linearGradient><linearGradient id="paint3_linear_66_276" x1="5.058" y1="0" x2="5.058" y2="10.116" gradientUnits="userSpaceOnUse"><stop stop-color="#fff"/><stop offset=".479" stop-color="#fff" stop-opacity=".86"/><stop offset="1" stop-color="#fff" stop-opacity="0"/></linearGradient><linearGradient id="paint4_linear_66_276" x1="11.591" y1="0" x2="11.591" y2="23.182" gradientUnits="userSpaceOnUse"><stop stop-color="#fff"/><stop offset=".479" stop-color="#fff" stop-opacity=".86"/><stop offset="1" stop-color="#fff" stop-opacity="0"/></linearGradient><linearGradient id="paint5_linear_66_276" x1="7.321" y1="0" x2="7.321" y2="14.642" gradientUnits="userSpaceOnUse"><stop stop-color="#fff"/><stop offset=".479" stop-color="#fff" stop-opacity=".86"/><stop offset="1" stop-color="#fff" stop-opacity="0"/></linearGradient><linearGradient id="paint6_linear_66_276" x1="6.938" y1="3.074" x2="6.938" y2="10.802" gradientUnits="userSpaceOnUse"><stop stop-color="#fff"/><stop offset=".479" stop-color="#fff" stop-opacity=".86"/><stop offset="1" stop-color="#fff" stop-opacity="0"/></linearGradient><linearGradient id="paint7_linear_66_276" x1="3.864" y1="0" x2="3.864" y2="7.727" gradientUnits="userSpaceOnUse"><stop stop-color="#fff"/><stop offset=".479" stop-color="#fff" stop-opacity=".86"/><stop offset="1" stop-color="#fff" stop-opacity="0"/></linearGradient><linearGradient id="paint8_linear_66_276" x1="897.938" y1="262.074" x2="897.938" y2="269.802" gradientUnits="userSpaceOnUse"><stop stop-color="#fff"/><stop offset=".479" stop-color="#fff" stop-opacity=".86"/><stop offset="1" stop-color="#fff" stop-opacity="0"/></linearGradient><linearGradient id="paint9_linear_66_276" x1="933.938" y1="392.074" x2="933.938" y2="399.802" gradientUnits="userSpaceOnUse"><stop stop-color="#fff"/><stop offset=".479" stop-color="#fff" stop-opacity=".86"/><stop offset="1" stop-color="#fff" stop-opacity="0"/></linearGradient><linearGradient id="paint10_linear_66_276" x1="659.938" y1="435.074" x2="659.938" y2="442.802" gradientUnits="userSpaceOnUse"><stop stop-color="#fff"/><stop offset=".479" stop-color="#fff" stop-opacity=".86"/><stop offset="1" stop-color="#fff" stop-opacity="0"/></linearGradient><linearGradient id="paint11_linear_66_276" x1="553.62" y1="288.537" x2="553.62" y2="292.401" gradientUnits="userSpaceOnUse"><stop stop-color="#fff"/><stop offset=".479" stop-color="#fff" stop-opacity=".86"/><stop offset="1" stop-color="#fff" stop-opacity="0"/></linearGradient><linearGradient id="paint12_linear_66_276" x1="574.469" y1="394.537" x2="574.469" y2="398.401" gradientUnits="userSpaceOnUse"><stop stop-color="#fff"/><stop offset=".479" stop-color="#fff" stop-opacity=".86"/><stop offset="1" stop-color="#fff" stop-opacity="0"/></linearGradient><linearGradient id="paint13_linear_66_276" x1="679.469" y1="266.537" x2="679.469" y2="270.401" gradientUnits="userSpaceOnUse"><stop stop-color="#fff"/><stop offset=".479" stop-color="#fff" stop-opacity=".86"/><stop offset="1" stop-color="#fff" stop-opacity="0"/></linearGradient><linearGradient id="paint14_linear_66_276" x1="820.469" y1="247.537" x2="820.469" y2="251.401" gradientUnits="userSpaceOnUse"><stop stop-color="#fff"/><stop offset=".479" stop-color="#fff" stop-opacity=".86"/><stop offset="1" stop-color="#fff" stop-opacity="0"/></linearGradient><linearGradient id="paint15_linear_66_276" x1="693.469" y1="119.537" x2="693.469" y2="123.401" gradientUnits="userSpaceOnUse"><stop stop-color="#fff"/><stop offset=".479" stop-color="#fff" stop-opacity=".86"/><stop offset="1" stop-color="#fff" stop-opacity="0"/></linearGradient><linearGradient id="paint16_linear_66_276" x1="569.25" y1="160.937" x2="569.25" y2="164.801" gradientUnits="userSpaceOnUse"><stop stop-color="#fff"/><stop offset=".479" stop-color="#fff" stop-opacity=".86"/><stop offset="1" stop-color="#fff" stop-opacity="0"/></linearGradient><linearGradient id="paint17_linear_66_276" x1="738.469" y1="99.537" x2="738.469" y2="103.401" gradientUnits="userSpaceOnUse"><stop stop-color="#fff"/><stop offset=".479" stop-color="#fff" stop-opacity=".86"/><stop offset="1" stop-color="#fff" stop-opacity="0"/></linearGradient><linearGradient id="paint18_linear_66_276" x1="787.878" y1="92.615" x2="787.878" y2="94.16" gradientUnits="userSpaceOnUse"><stop stop-color="#fff"/><stop offset=".479" stop-color="#fff" stop-opacity=".86"/><stop offset="1" stop-color="#fff" stop-opacity="0"/></linearGradient><linearGradient id="paint19_linear_66_276" x1="933.878" y1="103.615" x2="933.878" y2="105.16" gradientUnits="userSpaceOnUse"><stop stop-color="#fff"/><stop offset=".479" stop-color="#fff" stop-opacity=".86"/><stop offset="1" stop-color="#fff" stop-opacity="0"/></linearGradient><linearGradient id="paint20_linear_66_276" x1="764.878" y1="155.615" x2="764.878" y2="157.16" gradientUnits="userSpaceOnUse"><stop stop-color="#fff"/><stop offset=".479" stop-color="#fff" stop-opacity=".86"/><stop offset="1" stop-color="#fff" stop-opacity="0"/></linearGradient><linearGradient id="paint21_linear_66_276" x1="660.878" y1="131.615" x2="660.878" y2="133.16" gradientUnits="userSpaceOnUse"><stop stop-color="#fff"/><stop offset=".479" stop-color="#fff" stop-opacity=".86"/><stop offset="1" stop-color="#fff" stop-opacity="0"/></linearGradient><linearGradient id="paint22_linear_66_276" x1="625.878" y1="76.615" x2="625.878" y2="78.16" gradientUnits="userSpaceOnUse"><stop stop-color="#fff"/><stop offset=".479" stop-color="#fff" stop-opacity=".86"/><stop offset="1" stop-color="#fff" stop-opacity="0"/></linearGradient><linearGradient id="paint23_linear_66_276" x1="532.878" y1="83.615" x2="532.878" y2="85.16" gradientUnits="userSpaceOnUse"><stop stop-color="#fff"/><stop offset=".479" stop-color="#fff" stop-opacity=".86"/><stop offset="1" stop-color="#fff" stop-opacity="0"/></linearGradient><linearGradient id="paint24_linear_66_276" x1="549.878" y1="29.615" x2="549.878" y2="31.16" gradientUnits="userSpaceOnUse"><stop stop-color="#fff"/><stop offset=".479" stop-color="#fff" stop-opacity=".86"/><stop offset="1" stop-color="#fff" stop-opacity="0"/></linearGradient><linearGradient id="paint25_linear_66_276" x1="427.878" y1="43.615" x2="427.878" y2="45.16" gradientUnits="userSpaceOnUse"><stop stop-color="#fff"/><stop offset=".479" stop-color="#fff" stop-opacity=".86"/><stop offset="1" stop-color="#fff" stop-opacity="0"/></linearGradient><linearGradient id="paint26_linear_66_276" x1="108.783" y1="160.644" x2="108.783" y2="162.19" gradientUnits="userSpaceOnUse"><stop stop-color="#fff"/><stop offset=".479" stop-color="#fff" stop-opacity=".86"/><stop offset="1" stop-color="#fff" stop-opacity="0"/></linearGradient><linearGradient id="paint27_linear_66_276" x1="146.558" y1="375.794" x2="146.558" y2="377.339" gradientUnits="userSpaceOnUse"><stop stop-color="#fff"/><stop offset=".479" stop-color="#fff" stop-opacity=".86"/><stop offset="1" stop-color="#fff" stop-opacity="0"/></linearGradient><linearGradient id="paint28_linear_66_276" x1="210.192" y1="561.81" x2="210.192" y2="563.356" gradientUnits="userSpaceOnUse"><stop stop-color="#fff"/><stop offset=".479" stop-color="#fff" stop-opacity=".86"/><stop offset="1" stop-color="#fff" stop-opacity="0"/></linearGradient><linearGradient id="paint29_linear_66_276" x1="119.13" y1="429.357" x2="119.13" y2="430.902" gradientUnits="userSpaceOnUse"><stop stop-color="#fff"/><stop offset=".479" stop-color="#fff" stop-opacity=".86"/><stop offset="1" stop-color="#fff" stop-opacity="0"/></linearGradient><linearGradient id="paint30_linear_66_276" x1="760.192" y1="338.81" x2="760.192" y2="340.356" gradientUnits="userSpaceOnUse"><stop stop-color="#fff"/><stop offset=".479" stop-color="#fff" stop-opacity=".86"/><stop offset="1" stop-color="#fff" stop-opacity="0"/></linearGradient><linearGradient id="paint31_linear_66_276" x1="680.884" y1="500.525" x2="680.884" y2="502.07" gradientUnits="userSpaceOnUse"><stop stop-color="#fff"/><stop offset=".479" stop-color="#fff" stop-opacity=".86"/><stop offset="1" stop-color="#fff" stop-opacity="0"/></linearGradient><linearGradient id="paint32_linear_66_276" x1="613.554" y1="557.999" x2="613.554" y2="559.545" gradientUnits="userSpaceOnUse"><stop stop-color="#fff"/><stop offset=".479" stop-color="#fff" stop-opacity=".86"/><stop offset="1" stop-color="#fff" stop-opacity="0"/></linearGradient><linearGradient id="paint33_linear_66_276" x1="754.554" y1="538.999" x2="754.554" y2="540.545" gradientUnits="userSpaceOnUse"><stop stop-color="#fff"/><stop offset=".479" stop-color="#fff" stop-opacity=".86"/><stop offset="1" stop-color="#fff" stop-opacity="0"/></linearGradient><linearGradient id="paint34_linear_66_276" x1="627.554" y1="410.999" x2="627.554" y2="412.545" gradientUnits="userSpaceOnUse"><stop stop-color="#fff"/><stop offset=".479" stop-color="#fff" stop-opacity=".86"/><stop offset="1" stop-color="#fff" stop-opacity="0"/></linearGradient><linearGradient id="paint35_linear_66_276" x1="701.042" y1="429.026" x2="701.042" y2="430.571" gradientUnits="userSpaceOnUse"><stop stop-color="#fff"/><stop offset=".479" stop-color="#fff" stop-opacity=".86"/><stop offset="1" stop-color="#fff" stop-opacity="0"/></linearGradient><linearGradient id="paint36_linear_66_276" x1="362.878" y1="99.615" x2="362.878" y2="101.16" gradientUnits="userSpaceOnUse"><stop stop-color="#fff"/><stop offset=".479" stop-color="#fff" stop-opacity=".86"/><stop offset="1" stop-color="#fff" stop-opacity="0"/></linearGradient><linearGradient id="paint37_linear_66_276" x1="339.878" y1="132.615" x2="339.878" y2="134.16" gradientUnits="userSpaceOnUse"><stop stop-color="#fff"/><stop offset=".479" stop-color="#fff" stop-opacity=".86"/><stop offset="1" stop-color="#fff" stop-opacity="0"/></linearGradient><linearGradient id="paint38_linear_66_276" x1="134.022" y1="283.233" x2="134.022" y2="284.778" gradientUnits="userSpaceOnUse"><stop stop-color="#fff"/><stop offset=".479" stop-color="#fff" stop-opacity=".86"/><stop offset="1" stop-color="#fff" stop-opacity="0"/></linearGradient><linearGradient id="paint39_linear_66_276" x1="49.767" y1="455.145" x2="49.767" y2="456.69" gradientUnits="userSpaceOnUse"><stop stop-color="#fff"/><stop offset=".479" stop-color="#fff" stop-opacity=".86"/><stop offset="1" stop-color="#fff" stop-opacity="0"/></linearGradient><linearGradient id="paint40_linear_66_276" x1="85.255" y1="569.284" x2="85.255" y2="570.83" gradientUnits="userSpaceOnUse"><stop stop-color="#fff"/><stop offset=".479" stop-color="#fff" stop-opacity=".86"/><stop offset="1" stop-color="#fff" stop-opacity="0"/></linearGradient><linearGradient id="paint41_linear_66_276" x1="65.255" y1="398.284" x2="65.255" y2="399.83" gradientUnits="userSpaceOnUse"><stop stop-color="#fff"/><stop offset=".479" stop-color="#fff" stop-opacity=".86"/><stop offset="1" stop-color="#fff" stop-opacity="0"/></linearGradient><linearGradient id="paint42_linear_66_276" x1="635.255" y1="346.284" x2="635.255" y2="347.83" gradientUnits="userSpaceOnUse"><stop stop-color="#fff"/><stop offset=".479" stop-color="#fff" stop-opacity=".86"/><stop offset="1" stop-color="#fff" stop-opacity="0"/></linearGradient><linearGradient id="paint43_linear_66_276" x1="776.255" y1="327.284" x2="776.255" y2="328.83" gradientUnits="userSpaceOnUse"><stop stop-color="#fff"/><stop offset=".479" stop-color="#fff" stop-opacity=".86"/><stop offset="1" stop-color="#fff" stop-opacity="0"/></linearGradient><linearGradient id="paint44_linear_66_276" x1="649.255" y1="199.284" x2="649.255" y2="200.83" gradientUnits="userSpaceOnUse"><stop stop-color="#fff"/><stop offset=".479" stop-color="#fff" stop-opacity=".86"/><stop offset="1" stop-color="#fff" stop-opacity="0"/></linearGradient><linearGradient id="paint45_linear_66_276" x1="584.455" y1="250.977" x2="584.455" y2="252.522" gradientUnits="userSpaceOnUse"><stop stop-color="#fff"/><stop offset=".479" stop-color="#fff" stop-opacity=".86"/><stop offset="1" stop-color="#fff" stop-opacity="0"/></linearGradient><linearGradient id="paint46_linear_66_276" x1="659.688" y1="377.172" x2="659.688" y2="378.717" gradientUnits="userSpaceOnUse"><stop stop-color="#fff"/><stop offset=".479" stop-color="#fff" stop-opacity=".86"/><stop offset="1" stop-color="#fff" stop-opacity="0"/></linearGradient><linearGradient id="paint47_linear_66_276" x1="800.688" y1="358.172" x2="800.688" y2="359.717" gradientUnits="userSpaceOnUse"><stop stop-color="#fff"/><stop offset=".479" stop-color="#fff" stop-opacity=".86"/><stop offset="1" stop-color="#fff" stop-opacity="0"/></linearGradient><linearGradient id="paint48_linear_66_276" x1="673.688" y1="230.172" x2="673.688" y2="231.717" gradientUnits="userSpaceOnUse"><stop stop-color="#fff"/><stop offset=".479" stop-color="#fff" stop-opacity=".86"/><stop offset="1" stop-color="#fff" stop-opacity="0"/></linearGradient><linearGradient id="paint49_linear_66_276" x1="622.891" y1="259.558" x2="622.891" y2="261.104" gradientUnits="userSpaceOnUse"><stop stop-color="#fff"/><stop offset=".479" stop-color="#fff" stop-opacity=".86"/><stop offset="1" stop-color="#fff" stop-opacity="0"/></linearGradient><linearGradient id="paint50_linear_66_276" x1="592.358" y1="434.647" x2="592.358" y2="436.192" gradientUnits="userSpaceOnUse"><stop stop-color="#fff"/><stop offset=".479" stop-color="#fff" stop-opacity=".86"/><stop offset="1" stop-color="#fff" stop-opacity="0"/></linearGradient><linearGradient id="paint51_linear_66_276" x1="733.358" y1="415.647" x2="733.358" y2="417.192" gradientUnits="userSpaceOnUse"><stop stop-color="#fff"/><stop offset=".479" stop-color="#fff" stop-opacity=".86"/><stop offset="1" stop-color="#fff" stop-opacity="0"/></linearGradient><linearGradient id="paint52_linear_66_276" x1="606.358" y1="287.647" x2="606.358" y2="289.192" gradientUnits="userSpaceOnUse"><stop stop-color="#fff"/><stop offset=".479" stop-color="#fff" stop-opacity=".86"/><stop offset="1" stop-color="#fff" stop-opacity="0"/></linearGradient><linearGradient id="paint53_linear_66_276" x1="606.841" y1="346.616" x2="606.841" y2="348.161" gradientUnits="userSpaceOnUse"><stop stop-color="#fff"/><stop offset=".479" stop-color="#fff" stop-opacity=".86"/><stop offset="1" stop-color="#fff" stop-opacity="0"/></linearGradient><linearGradient id="paint54_linear_66_276" x1="299.387" y1="157.615" x2="299.387" y2="159.16" gradientUnits="userSpaceOnUse"><stop stop-color="#fff"/><stop offset=".479" stop-color="#fff" stop-opacity=".86"/><stop offset="1" stop-color="#fff" stop-opacity="0"/></linearGradient><linearGradient id="paint55_linear_66_276" x1="445.387" y1="138.615" x2="445.387" y2="140.16" gradientUnits="userSpaceOnUse"><stop stop-color="#fff"/><stop offset=".479" stop-color="#fff" stop-opacity=".86"/><stop offset="1" stop-color="#fff" stop-opacity="0"/></linearGradient><linearGradient id="paint56_linear_66_276" x1="565.878" y1="201.615" x2="565.878" y2="203.16" gradientUnits="userSpaceOnUse"><stop stop-color="#fff"/><stop offset=".479" stop-color="#fff" stop-opacity=".86"/><stop offset="1" stop-color="#fff" stop-opacity="0"/></linearGradient><linearGradient id="paint57_linear_66_276" x1="488.387" y1="147.615" x2="488.387" y2="149.16" gradientUnits="userSpaceOnUse"><stop stop-color="#fff"/><stop offset=".479" stop-color="#fff" stop-opacity=".86"/><stop offset="1" stop-color="#fff" stop-opacity="0"/></linearGradient><linearGradient id="paint58_linear_66_276" x1="748.387" y1="66.615" x2="748.387" y2="68.16" gradientUnits="userSpaceOnUse"><stop stop-color="#fff"/><stop offset=".479" stop-color="#fff" stop-opacity=".86"/><stop offset="1" stop-color="#fff" stop-opacity="0"/></linearGradient><linearGradient id="paint59_linear_66_276" x1="894.387" y1="77.615" x2="894.387" y2="79.16" gradientUnits="userSpaceOnUse"><stop stop-color="#fff"/><stop offset=".479" stop-color="#fff" stop-opacity=".86"/><stop offset="1" stop-color="#fff" stop-opacity="0"/></linearGradient><linearGradient id="paint60_linear_66_276" x1="725.387" y1="129.615" x2="725.387" y2="131.16" gradientUnits="userSpaceOnUse"><stop stop-color="#fff"/><stop offset=".479" stop-color="#fff" stop-opacity=".86"/><stop offset="1" stop-color="#fff" stop-opacity="0"/></linearGradient><linearGradient id="paint61_linear_66_276" x1="621.387" y1="105.615" x2="621.387" y2="107.16" gradientUnits="userSpaceOnUse"><stop stop-color="#fff"/><stop offset=".479" stop-color="#fff" stop-opacity=".86"/><stop offset="1" stop-color="#fff" stop-opacity="0"/></linearGradient><linearGradient id="paint62_linear_66_276" x1="586.387" y1="50.615" x2="586.387" y2="52.16" gradientUnits="userSpaceOnUse"><stop stop-color="#fff"/><stop offset=".479" stop-color="#fff" stop-opacity=".86"/><stop offset="1" stop-color="#fff" stop-opacity="0"/></linearGradient><linearGradient id="paint63_linear_66_276" x1="493.387" y1="57.615" x2="493.387" y2="59.16" gradientUnits="userSpaceOnUse"><stop stop-color="#fff"/><stop offset=".479" stop-color="#fff" stop-opacity=".86"/><stop offset="1" stop-color="#fff" stop-opacity="0"/></linearGradient><linearGradient id="paint64_linear_66_276" x1="510.387" y1="3.615" x2="510.387" y2="5.16" gradientUnits="userSpaceOnUse"><stop stop-color="#fff"/><stop offset=".479" stop-color="#fff" stop-opacity=".86"/><stop offset="1" stop-color="#fff" stop-opacity="0"/></linearGradient><linearGradient id="paint65_linear_66_276" x1="388.387" y1="17.615" x2="388.387" y2="19.16" gradientUnits="userSpaceOnUse"><stop stop-color="#fff"/><stop offset=".479" stop-color="#fff" stop-opacity=".86"/><stop offset="1" stop-color="#fff" stop-opacity="0"/></linearGradient><linearGradient id="paint66_linear_66_276" x1="323.387" y1="73.615" x2="323.387" y2="75.16" gradientUnits="userSpaceOnUse"><stop stop-color="#fff"/><stop offset=".479" stop-color="#fff" stop-opacity=".86"/><stop offset="1" stop-color="#fff" stop-opacity="0"/></linearGradient><linearGradient id="paint67_linear_66_276" x1="75.783" y1="264.226" x2="75.783" y2="265.772" gradientUnits="userSpaceOnUse"><stop stop-color="#fff"/><stop offset=".479" stop-color="#fff" stop-opacity=".86"/><stop offset="1" stop-color="#fff" stop-opacity="0"/></linearGradient><linearGradient id="paint68_linear_66_276" x1="39.512" y1="394.748" x2="39.512" y2="396.294" gradientUnits="userSpaceOnUse"><stop stop-color="#fff"/><stop offset=".479" stop-color="#fff" stop-opacity=".86"/><stop offset="1" stop-color="#fff" stop-opacity="0"/></linearGradient><linearGradient id="paint69_linear_66_276" x1="112.384" y1="514.357" x2="112.384" y2="515.902" gradientUnits="userSpaceOnUse"><stop stop-color="#fff"/><stop offset=".479" stop-color="#fff" stop-opacity=".86"/><stop offset="1" stop-color="#fff" stop-opacity="0"/></linearGradient><linearGradient id="paint70_linear_66_276" x1="92.384" y1="343.357" x2="92.384" y2="344.902" gradientUnits="userSpaceOnUse"><stop stop-color="#fff"/><stop offset=".479" stop-color="#fff" stop-opacity=".86"/><stop offset="1" stop-color="#fff" stop-opacity="0"/></linearGradient><linearGradient id="paint71_linear_66_276" x1="662.384" y1="291.357" x2="662.384" y2="292.902" gradientUnits="userSpaceOnUse"><stop stop-color="#fff"/><stop offset=".479" stop-color="#fff" stop-opacity=".86"/><stop offset="1" stop-color="#fff" stop-opacity="0"/></linearGradient><linearGradient id="paint72_linear_66_276" x1="803.384" y1="272.357" x2="803.384" y2="273.902" gradientUnits="userSpaceOnUse"><stop stop-color="#fff"/><stop offset=".479" stop-color="#fff" stop-opacity=".86"/><stop offset="1" stop-color="#fff" stop-opacity="0"/></linearGradient><linearGradient id="paint73_linear_66_276" x1="676.384" y1="144.357" x2="676.384" y2="145.902" gradientUnits="userSpaceOnUse"><stop stop-color="#fff"/><stop offset=".479" stop-color="#fff" stop-opacity=".86"/><stop offset="1" stop-color="#fff" stop-opacity="0"/></linearGradient><linearGradient id="paint74_linear_66_276" x1="570.898" y1="191.234" x2="570.898" y2="192.779" gradientUnits="userSpaceOnUse"><stop stop-color="#fff"/><stop offset=".479" stop-color="#fff" stop-opacity=".86"/><stop offset="1" stop-color="#fff" stop-opacity="0"/></linearGradient><linearGradient id="paint75_linear_66_276" x1="717.27" y1="398.083" x2="717.27" y2="399.629" gradientUnits="userSpaceOnUse"><stop stop-color="#fff"/><stop offset=".479" stop-color="#fff" stop-opacity=".86"/><stop offset="1" stop-color="#fff" stop-opacity="0"/></linearGradient><linearGradient id="paint76_linear_66_276" x1="649.94" y1="455.558" x2="649.94" y2="457.103" gradientUnits="userSpaceOnUse"><stop stop-color="#fff"/><stop offset=".479" stop-color="#fff" stop-opacity=".86"/><stop offset="1" stop-color="#fff" stop-opacity="0"/></linearGradient><linearGradient id="paint77_linear_66_276" x1="790.94" y1="436.558" x2="790.94" y2="438.103" gradientUnits="userSpaceOnUse"><stop stop-color="#fff"/><stop offset=".479" stop-color="#fff" stop-opacity=".86"/><stop offset="1" stop-color="#fff" stop-opacity="0"/></linearGradient><linearGradient id="paint78_linear_66_276" x1="663.94" y1="308.558" x2="663.94" y2="310.103" gradientUnits="userSpaceOnUse"><stop stop-color="#fff"/><stop offset=".479" stop-color="#fff" stop-opacity=".86"/><stop offset="1" stop-color="#fff" stop-opacity="0"/></linearGradient><linearGradient id="paint79_linear_66_276" x1="664.727" y1="326.559" x2="664.727" y2="328.104" gradientUnits="userSpaceOnUse"><stop stop-color="#fff"/><stop offset=".479" stop-color="#fff" stop-opacity=".86"/><stop offset="1" stop-color="#fff" stop-opacity="0"/></linearGradient><linearGradient id="paint80_linear_66_276" x1="300.387" y1="106.615" x2="300.387" y2="108.16" gradientUnits="userSpaceOnUse"><stop stop-color="#fff"/><stop offset=".479" stop-color="#fff" stop-opacity=".86"/><stop offset="1" stop-color="#fff" stop-opacity="0"/></linearGradient><linearGradient id="paint81_linear_66_276" x1="324.387" y1="170.615" x2="324.387" y2="172.16" gradientUnits="userSpaceOnUse"><stop stop-color="#fff"/><stop offset=".479" stop-color="#fff" stop-opacity=".86"/><stop offset="1" stop-color="#fff" stop-opacity="0"/></linearGradient><linearGradient id="paint82_linear_66_276" x1="299.897" y1="161.615" x2="299.897" y2="163.16" gradientUnits="userSpaceOnUse"><stop stop-color="#fff"/><stop offset=".479" stop-color="#fff" stop-opacity=".86"/><stop offset="1" stop-color="#fff" stop-opacity="0"/></linearGradient><linearGradient id="paint83_linear_66_276" x1="135.974" y1="332.586" x2="135.974" y2="334.131" gradientUnits="userSpaceOnUse"><stop stop-color="#fff"/><stop offset=".479" stop-color="#fff" stop-opacity=".86"/><stop offset="1" stop-color="#fff" stop-opacity="0"/></linearGradient><linearGradient id="paint84_linear_66_276" x1="6.984" y1="479.824" x2="6.984" y2="481.369" gradientUnits="userSpaceOnUse"><stop stop-color="#fff"/><stop offset=".479" stop-color="#fff" stop-opacity=".86"/><stop offset="1" stop-color="#fff" stop-opacity="0"/></linearGradient><linearGradient id="paint85_linear_66_276" x1="36.13" y1="564.169" x2="36.13" y2="565.714" gradientUnits="userSpaceOnUse"><stop stop-color="#fff"/><stop offset=".479" stop-color="#fff" stop-opacity=".86"/><stop offset="1" stop-color="#fff" stop-opacity="0"/></linearGradient><linearGradient id="paint86_linear_66_276" x1="16.13" y1="393.169" x2="16.13" y2="394.714" gradientUnits="userSpaceOnUse"><stop stop-color="#fff"/><stop offset=".479" stop-color="#fff" stop-opacity=".86"/><stop offset="1" stop-color="#fff" stop-opacity="0"/></linearGradient><linearGradient id="paint87_linear_66_276" x1="586.13" y1="341.169" x2="586.13" y2="342.714" gradientUnits="userSpaceOnUse"><stop stop-color="#fff"/><stop offset=".479" stop-color="#fff" stop-opacity=".86"/><stop offset="1" stop-color="#fff" stop-opacity="0"/></linearGradient><linearGradient id="paint88_linear_66_276" x1="659.359" y1="327.782" x2="659.359" y2="329.327" gradientUnits="userSpaceOnUse"><stop stop-color="#fff"/><stop offset=".479" stop-color="#fff" stop-opacity=".86"/><stop offset="1" stop-color="#fff" stop-opacity="0"/></linearGradient><linearGradient id="paint89_linear_66_276" x1="800.359" y1="308.782" x2="800.359" y2="310.327" gradientUnits="userSpaceOnUse"><stop stop-color="#fff"/><stop offset=".479" stop-color="#fff" stop-opacity=".86"/><stop offset="1" stop-color="#fff" stop-opacity="0"/></linearGradient><linearGradient id="paint90_linear_66_276" x1="673.359" y1="180.782" x2="673.359" y2="182.327" gradientUnits="userSpaceOnUse"><stop stop-color="#fff"/><stop offset=".479" stop-color="#fff" stop-opacity=".86"/><stop offset="1" stop-color="#fff" stop-opacity="0"/></linearGradient><linearGradient id="paint91_linear_66_276" x1="591.506" y1="221.42" x2="591.506" y2="222.965" gradientUnits="userSpaceOnUse"><stop stop-color="#fff"/><stop offset=".479" stop-color="#fff" stop-opacity=".86"/><stop offset="1" stop-color="#fff" stop-opacity="0"/></linearGradient><linearGradient id="paint92_linear_66_276" x1="592.029" y1="385.257" x2="592.029" y2="386.802" gradientUnits="userSpaceOnUse"><stop stop-color="#fff"/><stop offset=".479" stop-color="#fff" stop-opacity=".86"/><stop offset="1" stop-color="#fff" stop-opacity="0"/></linearGradient><linearGradient id="paint93_linear_66_276" x1="733.029" y1="366.257" x2="733.029" y2="367.802" gradientUnits="userSpaceOnUse"><stop stop-color="#fff"/><stop offset=".479" stop-color="#fff" stop-opacity=".86"/><stop offset="1" stop-color="#fff" stop-opacity="0"/></linearGradient><linearGradient id="paint94_linear_66_276" x1="606.029" y1="238.257" x2="606.029" y2="239.802" gradientUnits="userSpaceOnUse"><stop stop-color="#fff"/><stop offset=".479" stop-color="#fff" stop-opacity=".86"/><stop offset="1" stop-color="#fff" stop-opacity="0"/></linearGradient><linearGradient id="paint95_linear_66_276" x1="575.458" y1="308.478" x2="575.458" y2="310.023" gradientUnits="userSpaceOnUse"><stop stop-color="#fff"/><stop offset=".479" stop-color="#fff" stop-opacity=".86"/><stop offset="1" stop-color="#fff" stop-opacity="0"/></linearGradient><linearGradient id="paint96_linear_66_276" x1="454.897" y1="124.615" x2="454.897" y2="126.16" gradientUnits="userSpaceOnUse"><stop stop-color="#fff"/><stop offset=".479" stop-color="#fff" stop-opacity=".86"/><stop offset="1" stop-color="#fff" stop-opacity="0"/></linearGradient><linearGradient id="paint97_linear_66_276" x1="564.387" y1="203.615" x2="564.387" y2="205.16" gradientUnits="userSpaceOnUse"><stop stop-color="#fff"/><stop offset=".479" stop-color="#fff" stop-opacity=".86"/><stop offset="1" stop-color="#fff" stop-opacity="0"/></linearGradient><linearGradient id="paint98_linear_66_276" x1="820.469" y1="143.537" x2="820.469" y2="147.401" gradientUnits="userSpaceOnUse"><stop stop-color="#fff"/><stop offset=".479" stop-color="#fff" stop-opacity=".86"/><stop offset="1" stop-color="#fff" stop-opacity="0"/></linearGradient><linearGradient id="paint99_linear_66_276" x1="828.469" y1="65.537" x2="828.469" y2="69.401" gradientUnits="userSpaceOnUse"><stop stop-color="#fff"/><stop offset=".479" stop-color="#fff" stop-opacity=".86"/><stop offset="1" stop-color="#fff" stop-opacity="0"/></linearGradient><linearGradient id="paint100_linear_66_276" x1="860.469" y1="449.537" x2="860.469" y2="453.401" gradientUnits="userSpaceOnUse"><stop stop-color="#fff"/><stop offset=".479" stop-color="#fff" stop-opacity=".86"/><stop offset="1" stop-color="#fff" stop-opacity="0"/></linearGradient><linearGradient id="paint101_linear_66_276" x1="805.469" y1="519.537" x2="805.469" y2="523.401" gradientUnits="userSpaceOnUse"><stop stop-color="#fff"/><stop offset=".479" stop-color="#fff" stop-opacity=".86"/><stop offset="1" stop-color="#fff" stop-opacity="0"/></linearGradient><linearGradient id="paint102_linear_66_276" x1="428.938" y1="74.075" x2="428.938" y2="81.802" gradientUnits="userSpaceOnUse"><stop stop-color="#fff"/><stop offset=".479" stop-color="#fff" stop-opacity=".86"/><stop offset="1" stop-color="#fff" stop-opacity="0"/></linearGradient><linearGradient id="paint103_linear_66_276" x1="346.938" y1="74.075" x2="346.938" y2="81.802" gradientUnits="userSpaceOnUse"><stop stop-color="#fff"/><stop offset=".479" stop-color="#fff" stop-opacity=".86"/><stop offset="1" stop-color="#fff" stop-opacity="0"/></linearGradient><linearGradient id="paint104_linear_66_276" x1="984.938" y1="71.075" x2="984.938" y2="78.802" gradientUnits="userSpaceOnUse"><stop stop-color="#fff"/><stop offset=".479" stop-color="#fff" stop-opacity=".86"/><stop offset="1" stop-color="#fff" stop-opacity="0"/></linearGradient><linearGradient id="paint105_linear_66_276" x1="746.938" y1="244.074" x2="746.938" y2="251.802" gradientUnits="userSpaceOnUse"><stop stop-color="#fff"/><stop offset=".479" stop-color="#fff" stop-opacity=".86"/><stop offset="1" stop-color="#fff" stop-opacity="0"/></linearGradient><linearGradient id="paint106_linear_66_276" x1="640.62" y1="97.537" x2="640.62" y2="101.401" gradientUnits="userSpaceOnUse"><stop stop-color="#fff"/><stop offset=".479" stop-color="#fff" stop-opacity=".86"/><stop offset="1" stop-color="#fff" stop-opacity="0"/></linearGradient><linearGradient id="paint107_linear_66_276" x1="305.469" y1="40.537" x2="305.469" y2="44.401" gradientUnits="userSpaceOnUse"><stop stop-color="#fff"/><stop offset=".479" stop-color="#fff" stop-opacity=".86"/><stop offset="1" stop-color="#fff" stop-opacity="0"/></linearGradient><linearGradient id="paint108_linear_66_276" x1="284.469" y1="91.537" x2="284.469" y2="95.401" gradientUnits="userSpaceOnUse"><stop stop-color="#fff"/><stop offset=".479" stop-color="#fff" stop-opacity=".86"/><stop offset="1" stop-color="#fff" stop-opacity="0"/></linearGradient><linearGradient id="paint109_linear_66_276" x1="211.469" y1="3.537" x2="211.469" y2="7.401" gradientUnits="userSpaceOnUse"><stop stop-color="#fff"/><stop offset=".479" stop-color="#fff" stop-opacity=".86"/><stop offset="1" stop-color="#fff" stop-opacity="0"/></linearGradient><linearGradient id="paint110_linear_66_276" x1="147.469" y1="46.537" x2="147.469" y2="50.401" gradientUnits="userSpaceOnUse"><stop stop-color="#fff"/><stop offset=".479" stop-color="#fff" stop-opacity=".86"/><stop offset="1" stop-color="#fff" stop-opacity="0"/></linearGradient><linearGradient id="paint111_linear_66_276" x1="83.469" y1="52.537" x2="83.469" y2="56.401" gradientUnits="userSpaceOnUse"><stop stop-color="#fff"/><stop offset=".479" stop-color="#fff" stop-opacity=".86"/><stop offset="1" stop-color="#fff" stop-opacity="0"/></linearGradient><linearGradient id="paint112_linear_66_276" x1="1.932" y1="0" x2="1.932" y2="3.864" gradientUnits="userSpaceOnUse"><stop stop-color="#fff"/><stop offset=".479" stop-color="#fff" stop-opacity=".86"/><stop offset="1" stop-color="#fff" stop-opacity="0"/></linearGradient><linearGradient id="paint113_linear_66_276" x1="365.938" y1="138.074" x2="365.938" y2="145.802" gradientUnits="userSpaceOnUse"><stop stop-color="#fff"/><stop offset=".479" stop-color="#fff" stop-opacity=".86"/><stop offset="1" stop-color="#fff" stop-opacity="0"/></linearGradient></defs></svg>